<?xml version="1.0" encoding="utf-8"?>
<!-- Generator: Adobe Illustrator 28.0.0, SVG Export Plug-In . SVG Version: 6.00 Build 0)  -->
<svg version="1.1" id="Layer_1" xmlns="http://www.w3.org/2000/svg" xmlns:xlink="http://www.w3.org/1999/xlink" x="0px" y="0px"
	 viewBox="0 0 32 32" style="enable-background:new 0 0 32 32;" xml:space="preserve">
<style type="text/css">
	.st0{fill:#333333;}
</style>
<path class="st0" d="M0,8c0-2.2,1.8-4,4-4h24c2.2,0,4,1.8,4,4v16c0,2.2-1.8,4-4,4H4c-2.2,0-4-1.8-4-4V8z M4,6C2.9,6,2,6.9,2,8v0.4
	l14,8.4l14-8.4V8c0-1.1-0.9-2-2-2H4z M30,10.8l-9.4,5.7l9.4,5.8V10.8z M29.9,24.5l-11.3-6.9L16,19.2l-2.7-1.6L2.1,24.5
	C2.3,25.4,3.1,26,4,26h24C28.9,26,29.7,25.4,29.9,24.5z M2,22.2l9.4-5.8L2,10.8V22.2z"/>
</svg>
