<?xml version="1.0" encoding="utf-8"?>
<!-- Generator: Adobe Illustrator 28.0.0, SVG Export Plug-In . SVG Version: 6.00 Build 0)  -->
<svg version="1.1" id="Layer_1" xmlns="http://www.w3.org/2000/svg" xmlns:xlink="http://www.w3.org/1999/xlink" x="0px" y="0px"
	 viewBox="0 0 32 32" style="enable-background:new 0 0 32 32;" xml:space="preserve">
<style type="text/css">
	.st0{fill-rule:evenodd;clip-rule:evenodd;fill:#333333;}
</style>
<g>
	<path class="st0" d="M6.2,22.4C6.4,22.1,6.7,22,7,22h5c0.6,0,1,0.4,1,1s-0.4,1-1,1H7.5L3,30h26l-4.5-6H20c-0.6,0-1-0.4-1-1
		s0.4-1,1-1h5c0.3,0,0.6,0.1,0.8,0.4l6,8c0.3,0.4,0.2,1.1-0.2,1.4C31.4,31.9,31.2,32,31,32H1c-0.6,0-1-0.4-1-1
		c0-0.2,0.1-0.4,0.2-0.6L6.2,22.4z"/>
	<path class="st0" d="M16,2c-3.3,0-6,2.7-6,6s2.7,6,6,6s6-2.7,6-6S19.3,2,16,2z M8,8c0-4.4,3.6-8,8-8s8,3.6,8,8c0,4-3,7.4-7,7.9V27
		c0,0.6-0.4,1-1,1c-0.6,0-1-0.4-1-1V15.9C11,15.4,8,12,8,8L8,8z"/>
</g>
</svg>
