<?xml version="1.0" encoding="utf-8"?>
<!-- Generator: Adobe Illustrator 28.0.0, SVG Export Plug-In . SVG Version: 6.00 Build 0)  -->
<svg version="1.1" id="Layer_1" xmlns="http://www.w3.org/2000/svg" xmlns:xlink="http://www.w3.org/1999/xlink" x="0px" y="0px"
	 viewBox="0 0 32 32" style="enable-background:new 0 0 32 32;" xml:space="preserve">
<style type="text/css">
	.st0{fill:#333333;}
</style>
<path class="st0" d="M7.3,2.7C6.8,2.1,6,2,5.4,2.4c0,0-0.1,0.1-0.1,0.1L3.2,4.6c-1,1-1.3,2.3-0.9,3.5c1.8,5,4.6,9.5,8.3,13.2
	c3.7,3.7,8.2,6.6,13.2,8.3c1.2,0.4,2.6,0.1,3.5-0.9l2.1-2.1c0.5-0.5,0.5-1.4,0-1.9c0,0-0.1-0.1-0.1-0.1l-4.6-3.6
	c-0.3-0.3-0.8-0.3-1.2-0.2L19.2,22c-1.2,0.3-2.4-0.1-3.3-0.9L11,16.1c-0.9-0.9-1.2-2.1-0.9-3.3l1.1-4.4c0.1-0.4,0-0.8-0.2-1.2
	L7.3,2.7z M3.8,1c1.4-1.4,3.6-1.4,4.9,0C8.8,1.1,8.9,1.2,9,1.3L12.6,6c0.7,0.8,0.9,1.9,0.6,3l-1.1,4.4c-0.1,0.5,0,0.9,0.4,1.3
	l4.9,4.9c0.3,0.3,0.8,0.5,1.3,0.4l4.4-1.1c1-0.3,2.1,0,3,0.6l4.6,3.6c1.7,1.3,1.8,3.7,0.3,5.2l-2.1,2.1c-1.5,1.5-3.7,2.1-5.8,1.4
	c-5.3-1.9-10.1-4.9-14-8.8c-4-3.9-7-8.7-8.8-14c-0.7-2.1-0.1-4.3,1.4-5.8L3.8,1L3.8,1z"/>
</svg>
