<?xml version="1.0" encoding="utf-8"?>
<!-- Generator: Adobe Illustrator 28.0.0, SVG Export Plug-In . SVG Version: 6.00 Build 0)  -->
<svg version="1.1" id="Layer_1" xmlns="http://www.w3.org/2000/svg" xmlns:xlink="http://www.w3.org/1999/xlink" x="0px" y="0px"
	 viewBox="0 0 32 32" style="enable-background:new 0 0 32 32;" xml:space="preserve">
<style type="text/css">
	.st0{fill:#333333;}
</style>
<path class="st0" d="M4.3,5.7c-0.4-0.4-0.4-1,0-1.4s1-0.4,1.4,0L16,14.6L26.3,4.3c0.4-0.4,1-0.4,1.4,0s0.4,1,0,1.4l0,0L17.4,16
	l10.3,10.3c0.4,0.4,0.4,1,0,1.4s-1,0.4-1.4,0L16,17.4L5.7,27.7c-0.4,0.4-1,0.4-1.4,0c-0.4-0.4-0.4-1,0-1.4L14.6,16L4.3,5.7z"/>
</svg>
